# xmcd
#
# Track frame offsets:
#	150
#	16949
#	36471
#	60501
#	80926
#	95066
#	109753
#	140380
#	162551
#
# Disc length: 2517 seconds
#
# Revision: 1
# Processed by: cddbd v1.5PL3 Copyright (c) Steve Scherf et al.
# Submitted via: EasyCDDAExtractor 7.0.5.1
#
DISCID=7b09d309
DTITLE=John Campbell - A Man And His Blues
DYEAR=1994
DGENRE=Blues
TTITLE0=Going To Dallas
TTITLE1=Bad Night Blues
TTITLE2=Judgement Day
TTITLE3=Bluebird
TTITLE4=Deep River Rag
TTITLE5=Texas Country Boy
TTITLE6=Sittin' Here Thinkin'
TTITLE7=Sunnyland Train
TTITLE8=White Lightnin'
EXTD=
EXTT0=
EXTT1=
EXTT2=
EXTT3=
EXTT4=
EXTT5=
EXTT6=
EXTT7=
EXTT8=
PLAYORDER=
